<?xml version="1.0" encoding="UTF-8"?>
<svg width="2586px" height="1080px" viewBox="0 0 2586 1080" version="1.1" xmlns="http://www.w3.org/2000/svg" xmlns:xlink="http://www.w3.org/1999/xlink">
    <title>Artboard</title>
    <g id="Artboard" stroke="none" stroke-width="1" fill="none" fill-rule="evenodd">
        <g id="Goel-jewellers-Logo-" transform="translate(112.000000, 252.000000)" fill-rule="nonzero">
            <g id="Group" transform="translate(0.000000, 239.000000)" fill="#16283A">
                <path d="M87.7724141,170.806318 C76.1199151,170.806318 65.0358307,168.77008 54.5201609,164.641042 C44.0044912,160.512005 34.6256505,154.799226 26.4404805,147.389583 C18.2553105,139.97994 11.8322257,131.325929 7.1143847,121.314426 C2.39654365,111.359486 0.00920240394,100.556113 0.00920240394,88.9608694 C0.00920240394,76.5171937 2.45338511,64.9785127 7.34175053,54.2317018 C12.2301159,43.484891 18.9942495,34.0955721 27.5773097,26.0637451 C36.1603699,18.0319181 46.1076251,11.6969559 57.3053924,7.17198293 C68.5031597,2.64700996 80.4398659,0.384523471 93.1155112,0.384523471 C95.9575841,0.384523471 99.8796447,0.667334282 104.881693,1.28951807 C109.883741,1.85513969 114.999473,2.5904478 120.285728,3.43888023 C125.571984,4.28731266 130.403508,5.13574509 134.723459,6.09730185 C139.043409,7.00229644 141.999165,7.90729104 143.704409,8.75572347 C144.557031,9.09509644 145.125446,9.49103158 145.352811,9.88696671 C145.580177,10.2829018 145.807543,10.9616478 145.978067,11.7535181 C146.660165,16.617864 147.228579,21.4256478 147.740153,26.2334316 C148.251726,31.0412154 148.479092,35.113691 148.479092,38.4508586 C148.479092,39.638664 148.081201,40.7699073 147.342262,41.8445883 C146.603323,42.9192694 145.69386,43.484891 144.670714,43.484891 C142.96547,43.484891 141.714958,42.7495829 140.862336,41.2224046 C140.009714,39.6952262 139.327617,38.22461 138.816044,36.6974316 C137.792897,34.03901 136.769751,31.7199613 135.632922,29.7968478 C134.552934,27.8737343 132.961373,25.7243721 130.971922,23.4053235 C129.948776,22.0478316 127.788801,20.3509667 124.548838,18.2581667 C121.252033,16.1653667 116.818399,14.2988154 111.247936,12.6019505 C105.677473,10.9050856 98.8564984,10.1132154 90.7850114,10.1132154 C81.0082805,10.1132154 72.0841716,12.1494532 63.955843,16.278491 C55.8843559,20.4075289 48.8928566,26.0071829 43.0950278,33.1340154 C37.2971991,40.2608478 32.8067239,48.349237 29.6804437,57.3991829 C26.5541634,66.4491289 25.0194441,75.9515721 25.0194441,85.8499505 C25.0194441,97.7845667 26.8952122,108.418253 30.589907,117.807572 C34.2846018,127.196891 39.2866501,135.172156 45.5392105,141.733367 C51.7917709,148.294578 58.8401118,153.215486 66.7979159,156.609215 C74.6988787,159.946383 82.8840487,161.643248 91.3534259,161.643248 C101.130157,161.643248 108.349022,160.455442 112.95318,158.136394 C117.61418,155.760783 120.683618,153.837669 122.161496,152.367053 C124.037264,150.500502 125.742508,147.898642 127.334069,144.561475 C128.92563,141.224307 129.72141,137.37808 129.72141,132.966232 C129.72141,131.439053 129.778252,129.855313 129.835093,128.158448 C129.891935,126.461583 130.005618,124.82128 130.062459,123.124415 C130.119301,121.42755 130.176142,119.84381 130.176142,118.316632 C130.176142,116.45008 130.062459,114.922902 129.948776,113.678534 C129.778252,112.434167 129.437203,111.47261 128.92563,110.793864 C127.561435,108.927313 125.230935,107.456696 121.820448,106.268891 C118.466802,105.081086 115.056314,104.232653 111.702668,103.780156 C108.349022,103.271096 105.791156,103.044848 104.142754,103.044848 C103.460657,103.044848 102.43751,102.648913 101.130157,101.80048 C99.7659618,100.952048 99.0838643,99.9339289 99.0838643,98.8026856 C99.0838643,97.4451937 99.7659618,96.4270748 101.130157,95.6352046 C102.494352,94.8998964 103.517498,94.5039613 104.142754,94.5039613 C108.349022,94.5039613 111.986875,94.6170856 114.999473,94.73021 C118.01207,94.8998964 121.13835,95.0695829 124.378313,95.2392694 C127.561435,95.4089559 131.483496,95.4655181 136.030812,95.4655181 C140.407604,95.4655181 144.102299,95.2958316 147.171738,94.9564586 C150.184335,94.6170856 153.992713,94.4473991 158.54003,94.4473991 C159.222127,94.4473991 160.245273,94.6736478 161.723151,95.1827073 C163.144188,95.6917667 163.883127,96.7664478 163.883127,98.4633127 C163.883127,99.6511181 163.144188,100.669237 161.723151,101.461107 C160.302115,102.30954 159.222127,102.818599 158.54003,102.988286 C154.845335,104.006405 152.230628,105.477021 150.809591,107.400134 C149.388555,109.323248 148.42225,111.981669 147.910677,115.318837 C147.399104,118.995378 147.058055,122.275983 146.887531,125.160653 C146.717006,127.988761 146.660165,131.043118 146.660165,134.210599 L146.660165,140.998059 C146.660165,141.846491 146.830689,142.525237 147.171738,143.034296 C147.512787,143.543356 147.853836,144.222102 148.194884,145.070534 C148.706457,145.918967 149.388555,146.654275 150.241177,147.333021 C151.093799,148.011767 151.491689,148.690513 151.491689,149.369259 C151.491689,150.048005 151.378006,150.896437 151.093799,152.02768 C150.866433,153.102361 149.786445,153.837669 147.910677,154.177042 C146.717006,154.346729 144.386507,155.308286 140.976019,157.061713 C137.50869,158.81514 133.188739,160.794815 127.959325,163.00074 C122.729911,165.206664 116.761558,167.073215 109.997424,168.656956 C103.290132,170.014448 95.8439012,170.806318 87.7724141,170.806318 Z" id="Path"></path>
                <path d="M293.652176,170.806318 C282.51125,170.806318 271.881898,168.826642 261.764118,164.867291 C251.646338,160.90794 242.722229,155.308286 234.93495,148.011767 C227.204511,140.715248 221.008792,132.004675 216.461476,121.823486 C211.914159,111.698859 209.640501,100.386426 209.640501,87.9427505 C209.640501,76.5171937 211.516269,65.6006964 215.210964,55.0801343 C218.905658,44.6161343 224.41928,35.2268154 231.638145,27.0253018 C238.913852,18.8237883 247.894802,12.2625775 258.694679,7.39823158 C269.494556,2.53388563 281.885994,0.10171266 295.868993,0.10171266 C307.009919,0.10171266 317.639272,2.08138834 327.757051,6.04073969 C337.874831,10.000091 346.79894,15.5997451 354.586219,22.896264 C362.316658,30.1927829 368.512377,38.9033559 373.059693,49.0845451 C377.60701,59.2657343 379.880668,70.5216046 379.880668,82.9652802 C379.880668,94.2211505 378.0049,105.137648 374.310206,115.714772 C370.615511,126.291896 365.101889,135.681215 357.883024,143.882729 C350.607317,152.084242 341.626367,158.645453 330.82649,163.509799 C320.083454,168.374145 307.635175,170.806318 293.652176,170.806318 Z M297.460554,160.738253 C310.420406,160.738253 321.220283,158.023269 329.860185,152.53674 C338.443245,147.106772 344.923172,139.47088 349.186281,129.629064 C353.506232,119.787248 355.609366,108.361691 355.609366,95.2958316 C355.609366,83.7005883 354.245171,72.784091 351.573622,62.5463397 C348.902074,52.3085883 344.86633,43.3152046 339.580074,35.5096262 C334.293819,27.7040478 327.643368,21.6518964 319.742406,17.2400478 C311.784601,12.8847613 302.519444,10.678837 291.890091,10.678837 C279.271287,10.678837 268.641934,13.3938208 260.002033,18.710664 C251.418973,24.0840694 244.882205,31.606837 240.505413,41.2224046 C236.12862,50.8945343 233.911803,62.2635289 233.911803,75.3293883 C233.911803,87.0943181 235.219157,98.0673775 237.833864,108.305129 C240.448571,118.54288 244.427473,127.592826 249.713729,135.511529 C254.999984,143.430232 261.650435,149.595507 269.551398,154.007356 C277.566043,158.475767 286.831201,160.738253 297.460554,160.738253 Z" id="Shape"></path>
                <path d="M433.311639,168.543832 C431.094822,168.543832 429.332737,168.317583 428.025384,167.921648 C426.661189,167.525713 425.979091,166.790405 425.979091,165.772286 C425.979091,163.736048 428.764323,162.265432 434.334786,161.247313 C440.75787,160.059507 445.475711,158.136394 448.488309,155.477972 C451.500906,152.81955 453.035625,148.407702 453.035625,142.412113 L453.035625,29.1181018 C453.035625,23.0659505 451.785113,18.8237883 449.340931,16.278491 C446.896748,13.7897559 442.463114,11.9232046 436.040029,10.7353991 C433.197956,10.2263397 431.037981,9.54759374 429.730627,8.69916131 C428.366432,7.85072888 427.684335,6.83260996 427.684335,5.70136671 C427.684335,4.6832478 428.366432,4.00450185 429.730627,3.55200455 C431.094822,3.15606942 432.856908,2.92982077 435.016883,2.92982077 C441.439968,2.92982077 446.839906,3.04294509 451.330382,3.15606942 C455.820857,3.3257559 460.197649,3.43888023 464.460758,3.55200455 C468.780709,3.66512888 473.839599,3.66512888 479.751111,3.66512888 C485.321574,3.66512888 491.176244,3.60856671 497.315121,3.55200455 C503.453999,3.49544239 509.138145,3.43888023 514.367559,3.43888023 C520.108546,3.26919374 524.94007,3.15606942 528.918972,3.04294509 C532.897874,2.98638293 535.171533,2.92982077 535.85363,2.92982077 C536.706252,2.92982077 537.615715,3.09950725 538.638862,3.43888023 C539.662008,3.7782532 540.230422,4.34387482 540.400947,5.19230725 C541.253569,9.88696671 542.106191,14.525064 542.958812,19.1631613 C543.811434,23.8012586 544.209324,27.76061 544.209324,31.0977775 C544.209324,32.6249559 543.811434,33.5865127 543.072495,34.0955721 C542.333556,34.6046316 541.537776,34.8308802 540.685154,34.8308802 C539.832532,34.8308802 539.264118,34.6046316 538.923069,34.2086964 C538.58202,33.8127613 538.240971,33.1340154 537.899923,32.3421451 C537.047301,29.514037 536.194679,26.742491 535.342057,24.1406316 C534.489435,21.5387721 533.466289,19.6722208 532.32946,18.4844154 C529.942118,15.8259937 527.327411,14.0160046 524.485338,13.0544478 C521.643266,12.1494532 518.573827,11.6969559 515.390705,11.6969559 L482.252135,11.6969559 C480.88794,11.6969559 479.069013,12.432264 476.681672,13.9594424 C474.294331,15.4866208 473.157502,17.4097343 473.157502,19.7287829 L473.157502,73.0669018 C473.157502,74.5940802 473.612233,75.89501 474.521697,76.969691 C475.43116,78.0443721 476.511148,78.6099937 477.704818,78.6099937 L502.771901,78.6099937 C507.660267,78.6099937 511.013913,77.7049991 512.889681,75.9515721 C514.765449,74.1981451 516.243327,70.9741018 517.436998,66.2794424 C518.460144,62.6029018 519.938022,60.7363505 521.984314,60.7363505 C522.666412,60.7363505 523.348509,61.0757235 524.14429,61.7544694 C524.883229,62.4332154 525.281119,63.4513343 525.281119,64.752264 C525.281119,65.43101 525.224277,66.9581883 525.167436,69.277237 C525.053753,71.6528478 524.94007,74.0850208 524.769546,76.5737559 C524.599021,79.062491 524.54218,81.0421667 524.54218,82.3430964 C524.54218,84.0399613 524.599021,86.2458856 524.655863,89.0174316 C524.712704,91.7889775 524.826387,94.4473991 524.883229,96.9361343 C524.94007,99.4814316 524.996912,101.065172 524.996912,101.743918 C524.996912,102.931723 524.883229,103.949842 524.599021,104.741713 C524.371656,105.590145 523.689558,105.98608 522.723253,105.98608 C520.222229,105.98608 518.232778,103.327659 516.925424,97.9542532 C515.902278,94.1080262 514.538083,91.2233559 512.889681,89.4133667 C511.184437,87.5468154 508.683413,86.6418208 505.329767,86.6418208 L481.797403,86.6418208 C478.95533,86.6418208 476.795355,87.0377559 475.374318,87.773064 C473.953282,88.5083721 473.214343,90.3183613 473.214343,93.2030316 L473.214343,141.507118 C473.214343,147.898642 474.578538,152.310491 477.250087,154.742664 C479.921635,157.174837 484.184744,158.419205 489.925732,158.419205 L508.626572,158.419205 C514.02651,158.419205 518.516985,158.136394 522.154839,157.51421 C525.792692,156.948588 528.918972,155.817345 531.647362,154.12048 C534.318911,152.253929 536.763093,149.821756 538.866227,146.823961 C540.969361,143.826167 543.356703,139.753691 546.085093,134.719659 C546.596666,133.70154 547.16508,132.853107 547.847178,132.230923 C548.529275,131.552178 549.268214,131.325929 550.120836,131.495615 C550.973458,131.665302 551.655556,132.061237 552.167129,132.626859 C552.678702,133.19248 552.906068,134.040913 552.906068,135.002469 C552.906068,136.529648 552.508177,139.131507 551.655556,142.921172 C550.802934,146.710837 549.779787,150.613626 548.472434,154.62954 C547.16508,158.645453 546.085093,161.869496 545.061946,164.188545 C544.550373,165.37635 544.095642,166.394469 543.64091,167.18634 C543.24302,168.034772 542.504081,168.430707 541.480934,168.430707 C533.409447,168.430707 525.906375,168.317583 518.971717,168.204459 C512.037059,168.034772 505.500291,167.865086 499.247731,167.695399 C492.995171,167.525713 486.913134,167.356026 480.88794,167.18634 C474.919587,167.016653 468.723868,166.960091 462.300783,166.960091 C458.606088,166.960091 455.366125,167.073215 452.694577,167.356026 C449.966187,167.582275 447.237797,167.865086 444.338882,168.091334 C441.553651,168.374145 437.858956,168.543832 433.311639,168.543832 Z" id="Path"></path>
                <path d="M593.263503,167.638837 C592.012991,167.073215 591.387735,166.337907 591.387735,165.489475 C591.387735,163.962296 592.183515,162.944178 593.775076,162.321994 C595.366637,161.756372 596.446625,161.360437 596.958198,161.19075 C603.551807,159.833259 608.610697,157.853583 612.134867,155.251723 C615.659038,152.649864 617.421123,148.577388 617.421123,143.034296 L617.421123,26.2334316 C617.421123,22.2175181 617.023233,19.2197235 616.170611,17.29661 C615.317989,15.3734964 613.783269,13.9594424 611.623294,12.9978856 C609.406477,12.092891 606.223356,11.3010208 602.017088,10.6222748 C596.446625,9.6041559 593.661393,7.9638532 593.661393,5.58824239 C593.661393,4.57012347 594.343491,3.89137752 595.707686,3.43888023 C597.071881,3.04294509 598.833966,2.81669644 600.993941,2.81669644 C605.541258,2.81669644 609.235953,2.92982077 612.021184,3.04294509 C614.806416,3.21263158 617.477964,3.3257559 619.978988,3.43888023 C622.536854,3.55200455 625.606293,3.55200455 629.357829,3.55200455 C633.564097,3.55200455 637.20195,3.49544239 640.214548,3.43888023 C643.227145,3.38231807 646.353425,3.21263158 649.593388,3.04294509 C652.77651,2.87325861 656.698571,2.81669644 661.245887,2.81669644 C663.462704,2.81669644 665.224789,3.04294509 666.532143,3.43888023 C667.896338,3.83481536 668.578435,4.57012347 668.578435,5.58824239 C668.578435,6.7760478 667.896338,7.79416671 666.532143,8.58603698 C665.167948,9.43446942 663.064814,10.1132154 660.222741,10.6222748 C653.970181,11.8100802 648.683925,13.1675721 644.307133,14.7513127 C639.93034,16.3350532 637.713523,19.5590964 637.713523,24.4234424 L637.713523,142.977734 C637.713523,148.181453 638.907194,152.02768 641.237694,154.572978 C643.625035,157.061713 648.911291,158.362642 657.153302,158.362642 L688.529787,158.362642 C693.077104,158.362642 697.112847,157.627334 700.523335,156.21328 C703.990664,154.799226 706.548529,153.32861 708.253773,151.801432 C711.607419,148.973323 714.108443,146.371464 715.700004,144.108978 C717.291565,141.846491 719.224175,138.452761 721.38415,133.927788 C721.725199,132.909669 722.464138,131.382491 723.544126,129.402815 C724.624113,127.366578 725.760942,126.405021 726.954613,126.405021 C727.977759,126.405021 728.716698,126.91408 729.228271,127.932199 C729.739844,128.950318 729.96721,129.968437 729.96721,130.929994 C729.96721,131.09968 729.910369,131.325929 729.853527,131.552178 C729.739844,131.778426 729.739844,132.004675 729.739844,132.174361 C728.546174,136.529648 727.523028,140.488999 726.556723,143.995853 C725.647259,147.502707 724.851479,150.896437 724.283064,154.063918 C723.71465,157.231399 723.203077,160.625129 722.918869,164.131983 C722.748345,165.319788 722.464138,166.337907 722.009406,167.129778 C721.611516,167.97821 720.702053,168.374145 719.337858,168.374145 C710.925322,168.374145 702.796993,168.261021 695.066555,168.147896 C687.279275,167.97821 679.833044,167.865086 672.67102,167.751961 C665.508997,167.638837 658.63118,167.525713 652.037571,167.356026 C645.443962,167.18634 638.964036,167.129778 632.540951,167.129778 C628.334683,167.129778 623.56,167.18634 618.273745,167.356026 C612.987489,167.525713 606.337038,167.865086 598.436076,168.374145 C596.2761,168.543832 594.570857,168.204459 593.263503,167.638837 Z" id="Path"></path>
                <path d="M842.058566,217.583226 C824.66508,217.583226 816.025178,213.454188 816.025178,205.252675 C816.025178,202.424567 817.218849,199.709583 819.549349,197.220848 C821.93669,194.67555 824.039824,193.431183 825.858751,193.431183 C828.075567,193.431183 830.178701,193.88368 832.168152,194.845237 C834.214445,195.750232 836.033372,197.390534 837.738615,199.766145 C839.955432,202.424567 841.888042,204.404242 843.706968,205.535486 C845.469054,206.723291 847.458505,207.288913 849.675322,207.288913 C855.586833,207.288913 859.849943,203.725496 862.46465,196.598664 C865.079357,189.471832 866.38671,179.799702 866.38671,167.525713 L866.38671,28.6090424 C866.38671,22.7265775 865.136198,18.5975397 862.578333,16.1653667 C860.077308,13.7331937 855.757358,11.9232046 849.675322,10.7353991 C844.104859,9.71728023 841.319627,8.07697752 841.319627,5.70136671 C841.319627,4.6832478 842.001725,4.00450185 843.36592,3.55200455 C844.730115,3.15606942 846.4922,2.92982077 848.652175,2.92982077 C853.199492,2.92982077 856.951028,3.04294509 859.906784,3.15606942 C862.86254,3.3257559 865.704613,3.43888023 868.376161,3.55200455 C871.04771,3.66512888 874.344514,3.66512888 878.266575,3.66512888 C881.449697,3.66512888 883.950721,3.60856671 885.712806,3.55200455 C887.474891,3.49544239 889.521184,3.3257559 891.794842,3.15606942 C894.068501,2.98638293 897.478988,2.92982077 902.026305,2.92982077 C904.243122,2.92982077 906.005207,3.15606942 907.31256,3.55200455 C908.676755,3.94793969 909.358853,4.6832478 909.358853,5.70136671 C909.358853,6.88917212 908.676755,7.90729104 907.31256,8.69916131 C905.948365,9.54759374 903.845231,10.2263397 901.003158,10.7353991 C894.750598,11.9232046 890.771696,13.7331937 889.123294,16.1653667 C887.41805,18.5975397 886.565428,22.7265775 886.565428,28.6090424 L886.565428,155.477972 C886.565428,162.548242 885.48544,169.166015 883.268623,175.387853 C881.051807,181.609691 878.437099,187.152783 875.310819,192.017129 C872.184539,196.881475 869.285625,200.897388 866.557235,204.121432 C863.203589,208.137345 859.452052,211.41795 855.416309,213.963248 C851.437407,216.338859 846.946932,217.583226 842.058566,217.583226 Z" id="Path"></path>
                <path d="M961.48247,168.543832 C959.265653,168.543832 957.503568,168.317583 956.196214,167.921648 C954.832019,167.525713 954.149922,166.790405 954.149922,165.772286 C954.149922,163.736048 956.935153,162.265432 962.505616,161.247313 C968.928701,160.059507 973.646542,158.136394 976.659139,155.477972 C979.671737,152.81955 981.206456,148.407702 981.206456,142.412113 L981.206456,29.1181018 C981.206456,23.0659505 979.955944,18.8237883 977.511761,16.278491 C975.067579,13.7897559 970.633945,11.9232046 964.21086,10.7353991 C961.368787,10.2263397 959.208812,9.54759374 957.901458,8.69916131 C956.537263,7.85072888 955.855166,6.83260996 955.855166,5.70136671 C955.855166,4.6832478 956.537263,4.00450185 957.901458,3.55200455 C959.265653,3.15606942 961.027738,2.92982077 963.187714,2.92982077 C969.610799,2.92982077 975.010737,3.04294509 979.501212,3.15606942 C983.991688,3.3257559 988.36848,3.43888023 992.631589,3.55200455 C996.95154,3.66512888 1002.01043,3.66512888 1007.92194,3.66512888 C1013.4924,3.66512888 1019.34707,3.60856671 1025.48595,3.55200455 C1031.62483,3.49544239 1037.30898,3.43888023 1042.53839,3.43888023 C1048.27938,3.26919374 1053.1109,3.15606942 1057.0898,3.04294509 C1061.06871,2.98638293 1063.34236,2.92982077 1064.02446,2.92982077 C1064.87708,2.92982077 1065.78655,3.09950725 1066.80969,3.43888023 C1067.83284,3.7782532 1068.40125,4.34387482 1068.57178,5.19230725 C1069.4244,9.88696671 1070.27702,14.525064 1071.12964,19.1631613 C1071.98227,23.8012586 1072.38016,27.76061 1072.38016,31.0977775 C1072.38016,32.6249559 1071.98227,33.5865127 1071.24333,34.0955721 C1070.50439,34.6046316 1069.70861,34.8308802 1068.85598,34.8308802 C1068.00336,34.8308802 1067.43495,34.6046316 1067.0939,34.2086964 C1066.75285,33.8127613 1066.4118,33.1340154 1066.07075,32.3421451 C1065.21813,29.514037 1064.36551,26.742491 1063.51289,24.1406316 C1062.66027,21.5387721 1061.63712,19.6722208 1060.50029,18.4844154 C1058.11295,15.8259937 1055.49824,14.0160046 1052.65617,13.0544478 C1049.8141,12.1494532 1046.74466,11.6969559 1043.56154,11.6969559 L1010.42297,11.6969559 C1009.05877,11.6969559 1007.23984,12.432264 1004.8525,13.9594424 C1002.46516,15.4866208 1001.32833,17.4097343 1001.32833,19.7287829 L1001.32833,73.0669018 C1001.32833,74.5940802 1001.78306,75.89501 1002.69253,76.969691 C1003.60199,78.0443721 1004.68198,78.6099937 1005.87565,78.6099937 L1030.94273,78.6099937 C1035.8311,78.6099937 1039.18474,77.7049991 1041.06051,75.9515721 C1042.93628,74.1981451 1044.41416,70.9741018 1045.60783,66.2794424 C1046.63097,62.6029018 1048.10885,60.7363505 1050.15515,60.7363505 C1050.83724,60.7363505 1051.51934,61.0757235 1052.31512,61.7544694 C1053.05406,62.4332154 1053.45195,63.4513343 1053.45195,64.752264 C1053.45195,65.43101 1053.39511,66.9581883 1053.33827,69.277237 C1053.22458,71.6528478 1053.1109,74.0850208 1052.94038,76.5737559 C1052.76985,79.062491 1052.71301,81.0421667 1052.71301,82.3430964 C1052.71301,84.0399613 1052.76985,86.2458856 1052.82669,89.0174316 C1052.88354,91.7889775 1052.99722,94.4473991 1053.05406,96.9361343 C1053.1109,99.4814316 1053.16774,101.065172 1053.16774,101.743918 C1053.16774,102.931723 1053.05406,103.949842 1052.76985,104.741713 C1052.54249,105.590145 1051.86039,105.98608 1050.89408,105.98608 C1048.39306,105.98608 1046.40361,103.327659 1045.09626,97.9542532 C1044.07311,94.1080262 1042.70891,91.2233559 1041.06051,89.4133667 C1039.35527,87.5468154 1036.85424,86.6418208 1033.5006,86.6418208 L1009.96823,86.6418208 C1007.12616,86.6418208 1004.96619,87.0377559 1003.54515,87.773064 C1002.12411,88.5083721 1001.38517,90.3183613 1001.38517,93.2030316 L1001.38517,141.507118 C1001.38517,147.898642 1002.74937,152.310491 1005.42092,154.742664 C1008.09247,157.174837 1012.35558,158.419205 1018.09656,158.419205 L1036.7974,158.419205 C1042.19734,158.419205 1046.68782,158.136394 1050.32567,157.51421 C1053.96352,156.948588 1057.0898,155.817345 1059.81819,154.12048 C1062.48974,152.253929 1064.93392,149.821756 1067.03706,146.823961 C1069.14019,143.826167 1071.52753,139.753691 1074.25592,134.719659 C1074.7675,133.70154 1075.33591,132.853107 1076.01801,132.230923 C1076.70011,131.552178 1077.43905,131.325929 1078.29167,131.495615 C1079.14429,131.665302 1079.82639,132.061237 1080.33796,132.626859 C1080.84953,133.19248 1081.0769,134.040913 1081.0769,135.002469 C1081.0769,136.529648 1080.67901,139.131507 1079.82639,142.921172 C1078.97376,146.710837 1077.95062,150.613626 1076.64326,154.62954 C1075.33591,158.645453 1074.25592,161.869496 1073.23278,164.188545 C1072.7212,165.37635 1072.26647,166.394469 1071.81174,167.18634 C1071.41385,168.034772 1070.67491,168.430707 1069.65177,168.430707 C1061.58028,168.430707 1054.07721,168.317583 1047.14255,168.204459 C1040.20789,168.034772 1033.67112,167.865086 1027.41856,167.695399 C1021.166,167.525713 1015.08397,167.356026 1009.05877,167.18634 C1003.09042,167.016653 996.894699,166.960091 990.471614,166.960091 C986.776919,166.960091 983.536956,167.073215 980.865407,167.356026 C978.137017,167.582275 975.408627,167.865086 972.509713,168.091334 C969.724482,168.374145 966.029787,168.543832 961.48247,168.543832 Z" id="Path"></path>
                <path d="M1197.48821,171.315378 C1197.14716,171.315378 1196.63558,170.580069 1195.95349,169.052891 C1195.27139,167.525713 1194.58929,165.941972 1193.90719,164.245107 L1139.28255,27.8171721 C1137.23626,23.4618856 1134.79208,19.8984694 1131.95,17.1269235 C1129.10793,14.3553775 1125.47008,12.3757018 1121.09329,11.1878964 C1118.3649,10.339464 1116.3186,9.49103158 1114.89757,8.64259915 C1113.47653,7.79416671 1112.73759,6.7760478 1112.73759,5.64480455 C1112.73759,4.62668563 1113.41969,3.94793969 1114.78388,3.49544239 C1116.14808,3.09950725 1117.91016,2.87325861 1120.07014,2.87325861 C1123.93536,2.87325861 1127.63005,2.98638293 1131.09738,3.26919374 C1134.56471,3.49544239 1138.37309,3.66512888 1142.57936,3.66512888 C1147.2972,3.66512888 1151.78767,3.60856671 1155.99394,3.43888023 C1160.20021,3.26919374 1163.55385,3.21263158 1166.11172,3.21263158 C1168.32854,3.21263158 1170.09062,3.43888023 1171.39798,3.83481536 C1172.76217,4.2307505 1173.44427,4.96605861 1173.44427,5.98417752 C1173.44427,7.17198293 1172.76217,8.07697752 1171.39798,8.75572347 C1170.03378,9.43446942 1167.93065,10.1697775 1165.08857,11.01821 C1163.04228,11.5272694 1161.73493,12.5453883 1161.05283,14.185691 C1160.37073,15.7694316 1160.02968,17.5228586 1160.02968,19.3328478 C1160.02968,22.0478316 1160.71178,25.6112478 1162.07598,30.1362208 C1165.9412,39.8649127 1169.52221,48.7451721 1172.70533,56.8335613 C1175.88845,64.8653883 1179.07157,72.6709667 1182.19785,80.1371721 C1185.32413,87.6033775 1188.62094,95.2392694 1192.08827,103.044848 C1195.5556,110.850426 1199.36397,119.560999 1203.57024,129.120005 C1204.42286,130.986556 1205.10496,131.778426 1205.73022,131.60874 C1206.29863,131.439053 1206.86705,130.703745 1207.37862,129.346253 L1227.1026,80.7593559 C1227.61418,79.401864 1228.01207,78.2706208 1228.23943,77.3656262 C1228.4668,76.4606316 1228.63732,75.6687613 1228.63732,74.9900154 C1228.63732,73.9718964 1228.4668,72.9537775 1228.12575,71.8225343 C1227.7847,70.7478532 1227.27313,69.3337991 1226.59103,67.6934964 L1212.1533,31.94621 C1209.93648,26.5728046 1206.46916,22.1043937 1201.75131,18.4844154 C1197.03347,14.864437 1192.48616,12.4888262 1188.10936,11.3010208 C1185.43782,10.4525883 1183.33468,9.6041559 1181.91365,8.75572347 C1180.49261,7.90729104 1179.75367,6.88917212 1179.75367,5.75792888 C1179.75367,4.73980996 1180.43577,4.06106401 1181.79996,3.60856671 C1183.16416,3.21263158 1184.92624,2.98638293 1187.08622,2.98638293 C1189.75777,2.98638293 1192.37247,3.09950725 1194.81666,3.21263158 C1197.26084,3.38231807 1199.76186,3.49544239 1202.37657,3.60856671 C1204.99128,3.72169104 1207.83335,3.72169104 1210.84595,3.72169104 C1214.71117,3.72169104 1218.29218,3.66512888 1221.58898,3.49544239 C1224.88579,3.3257559 1227.7847,3.26919374 1230.34257,3.26919374 C1232.50254,3.26919374 1234.32147,3.49544239 1235.62882,3.89137752 C1236.99302,4.28731266 1237.67512,5.02262077 1237.67512,6.04073969 C1237.67512,7.39823158 1236.82249,8.47291266 1235.11725,9.32134509 C1233.41201,10.1697775 1231.70676,11.0747721 1229.94468,12.092891 C1228.18259,13.11101 1227.27313,14.6381883 1227.27313,16.617864 C1227.27313,16.957237 1227.32997,17.29661 1227.38681,17.6359829 C1227.44365,17.9753559 1227.61418,18.3147289 1227.7847,18.6541018 C1228.12575,19.3328478 1228.75101,20.9731505 1229.66047,23.57501 C1230.56993,26.1768694 1231.70676,29.0615397 1232.95728,32.2855829 C1234.20779,35.453064 1235.4583,38.4508586 1236.65197,41.2224046 C1237.84564,43.9939505 1238.69826,45.9736262 1239.20984,47.1614316 C1240.06246,49.1976694 1240.74455,50.2157883 1241.36981,50.3289127 C1241.93823,50.442037 1242.79085,49.3673559 1243.75715,47.1614316 C1245.12135,44.163637 1246.48554,40.7133451 1247.90658,36.8671181 C1249.32762,33.020891 1250.57813,29.3443505 1251.71496,25.8940586 C1252.79494,22.4437667 1253.53388,20.0681559 1253.87493,18.710664 C1254.04546,18.2016046 1254.1023,17.6359829 1254.1023,16.957237 C1254.1023,14.9209991 1253.36336,13.4503829 1251.82864,12.432264 C1250.29392,11.4141451 1248.7592,10.4525883 1247.16764,9.54759374 C1245.57608,8.64259915 1244.7803,7.5113559 1244.7803,6.15386401 C1244.7803,5.13574509 1245.4624,4.45699915 1246.82659,4.00450185 C1248.19079,3.60856671 1249.95287,3.38231807 1252.11285,3.38231807 C1255.80754,3.38231807 1258.36541,3.49544239 1259.67276,3.60856671 C1261.03696,3.7782532 1262.85588,3.83481536 1265.24322,3.83481536 C1268.0853,3.83481536 1270.52948,3.72169104 1272.57577,3.43888023 C1274.62206,3.21263158 1277.12309,3.04294509 1280.13569,3.04294509 C1282.29566,3.04294509 1284.11459,3.26919374 1285.42194,3.66512888 C1286.78614,4.06106401 1287.46823,4.79637212 1287.46823,5.81449104 C1287.46823,7.00229644 1286.78614,7.9638532 1285.42194,8.69916131 C1284.05775,9.43446942 1281.95461,10.1697775 1279.11254,10.8485235 C1273.7126,12.0363289 1270.01791,13.4503829 1268.0853,15.1472478 C1266.15269,16.8441127 1264.04955,19.4459721 1261.88958,22.9528262 C1261.03696,24.4800046 1259.84328,26.9687397 1258.19488,30.4755937 C1256.60332,33.9824478 1254.89808,37.885237 1253.13599,42.070837 C1251.37391,46.256437 1249.78235,50.2157883 1248.47499,53.8923289 C1247.96342,55.0801343 1247.50869,56.720437 1247.05396,58.9263613 C1246.65607,61.1322856 1246.59923,62.6029018 1246.94027,63.4513343 L1272.97366,130.138123 C1273.31471,130.986556 1273.7126,131.212805 1274.22417,130.873432 C1274.73575,130.534059 1275.24732,129.79875 1275.75889,128.610945 C1279.96516,117.524761 1284.73984,103.384221 1290.0261,86.0761991 C1295.31235,68.7681775 1300.88282,50.4985991 1306.62381,31.2109018 C1307.13538,29.6837235 1307.53327,28.1565451 1307.76063,26.5728046 C1307.988,24.989064 1308.15852,23.5184478 1308.15852,22.1609559 C1308.15852,19.6156586 1307.59011,17.3531721 1306.51012,15.3734964 C1305.43013,13.3372586 1303.44068,12.0363289 1300.54177,11.3575829 C1298.83653,10.8485235 1297.0176,10.1697775 1295.08499,9.32134509 C1293.15238,8.47291266 1292.18607,7.45479374 1292.18607,6.3235505 C1292.18607,5.30543158 1292.86817,4.62668563 1294.23237,4.17418834 C1295.59656,3.7782532 1297.35865,3.55200455 1299.51862,3.55200455 C1302.87227,3.55200455 1305.94171,3.60856671 1308.72694,3.66512888 C1311.51217,3.7782532 1314.52477,3.7782532 1317.70789,3.7782532 C1321.91416,3.7782532 1325.9499,3.66512888 1329.87196,3.38231807 C1333.79402,3.09950725 1337.26135,2.98638293 1340.50131,2.98638293 C1342.66129,2.98638293 1344.48022,3.21263158 1345.78757,3.60856671 C1347.15176,4.00450185 1347.83386,4.73980996 1347.83386,5.75792888 C1347.83386,6.94573428 1347.15176,7.90729104 1345.78757,8.64259915 C1344.42337,9.37790725 1342.32024,10.1132154 1339.47817,10.7919613 C1335.44242,11.6403937 1332.03194,13.3372586 1329.24671,15.9391181 C1326.46147,18.5409775 1324.24466,21.3690856 1322.6531,24.4800046 C1321.06154,27.5909235 1319.75418,30.4190316 1318.73104,32.9077667 L1273.93997,164.527918 C1273.76944,165.206664 1273.25787,166.337907 1272.40525,167.921648 C1271.55263,169.505388 1270.7,170.297259 1269.84738,170.297259 C1269.16528,170.297259 1268.42635,169.788199 1267.57372,168.77008 C1266.7211,167.751961 1266.039,166.67728 1265.52743,165.489475 C1261.15064,155.42141 1257.34226,146.428026 1254.15914,138.452761 C1250.97602,130.477496 1247.84974,122.445669 1244.95082,114.413842 C1241.99507,106.382015 1238.52774,97.4451937 1234.43515,87.7165018 C1233.92358,86.5286964 1233.52569,86.0761991 1233.18464,86.35901 C1232.84359,86.6418208 1232.33202,87.6033775 1231.64992,89.2436802 C1227.61418,98.8026856 1224.09001,107.28701 1221.13425,114.640091 C1218.1785,122.049734 1215.27958,129.51594 1212.38067,137.151832 C1209.53859,144.787723 1206.29863,153.554859 1202.77446,163.453237 C1202.09236,165.150102 1201.23974,166.846967 1200.2166,168.600394 C1199.47766,170.410383 1198.45451,171.315378 1197.48821,171.315378 Z" id="Path"></path>
                <path d="M1386.42921,168.543832 C1384.2124,168.543832 1382.45031,168.317583 1381.14296,167.921648 C1379.77876,167.525713 1379.09666,166.790405 1379.09666,165.772286 C1379.09666,163.736048 1381.8819,162.265432 1387.45236,161.247313 C1393.87544,160.059507 1398.59328,158.136394 1401.60588,155.477972 C1404.61848,152.81955 1406.1532,148.407702 1406.1532,142.412113 L1406.1532,29.1181018 C1406.1532,23.0659505 1404.90269,18.8237883 1402.4585,16.278491 C1400.01432,13.7897559 1395.58069,11.9232046 1389.1576,10.7353991 C1386.31553,10.2263397 1384.15555,9.54759374 1382.8482,8.69916131 C1381.48401,7.85072888 1380.80191,6.83260996 1380.80191,5.70136671 C1380.80191,4.6832478 1381.48401,4.00450185 1382.8482,3.55200455 C1384.2124,3.15606942 1385.97448,2.92982077 1388.13446,2.92982077 C1394.55754,2.92982077 1399.95748,3.04294509 1404.44795,3.15606942 C1408.93843,3.3257559 1413.31522,3.43888023 1417.57833,3.55200455 C1421.89828,3.66512888 1426.95717,3.66512888 1432.86868,3.66512888 C1438.43915,3.66512888 1444.29382,3.60856671 1450.43269,3.55200455 C1456.57157,3.49544239 1462.25572,3.43888023 1467.48513,3.43888023 C1473.22612,3.26919374 1478.05764,3.15606942 1482.03655,3.04294509 C1486.01545,2.98638293 1488.34595,2.92982077 1488.9712,2.92982077 C1489.82383,2.92982077 1490.73329,3.09950725 1491.75643,3.43888023 C1492.77958,3.7782532 1493.348,4.34387482 1493.51852,5.19230725 C1494.37114,9.88696671 1495.22376,14.525064 1496.07639,19.1631613 C1496.92901,23.8012586 1497.3269,27.76061 1497.3269,31.0977775 C1497.3269,32.6249559 1496.92901,33.5865127 1496.19007,34.0955721 C1495.45113,34.6046316 1494.65535,34.8308802 1493.80273,34.8308802 C1492.95011,34.8308802 1492.38169,34.6046316 1492.04064,34.2086964 C1491.69959,33.8127613 1491.35854,33.1340154 1491.0175,32.3421451 C1490.16487,29.514037 1489.31225,26.742491 1488.45963,24.1406316 C1487.60701,21.5387721 1486.58386,19.6722208 1485.44703,18.4844154 C1483.05969,15.8259937 1480.44498,14.0160046 1477.60291,13.0544478 C1474.76084,12.1494532 1471.6914,11.6969559 1468.50828,11.6969559 L1435.36971,11.6969559 C1434.00551,11.6969559 1432.18659,12.432264 1429.79925,13.9594424 C1427.4119,15.4866208 1426.27507,17.4097343 1426.27507,19.7287829 L1426.27507,73.0669018 C1426.27507,74.5940802 1426.72981,75.89501 1427.69611,76.969691 C1428.66242,78.0443721 1429.68556,78.6099937 1430.87923,78.6099937 L1455.94632,78.6099937 C1460.83468,78.6099937 1464.18833,77.7049991 1466.0641,75.9515721 C1467.93986,74.1981451 1469.41774,70.9741018 1470.61141,66.2794424 C1471.63456,62.6029018 1473.16928,60.7363505 1475.15873,60.7363505 C1475.84083,60.7363505 1476.57977,61.0757235 1477.3187,61.7544694 C1478.05764,62.4332154 1478.45553,63.4513343 1478.45553,64.752264 C1478.45553,65.43101 1478.39869,66.9581883 1478.34185,69.277237 C1478.22817,71.6528478 1478.11448,74.0850208 1477.94396,76.5737559 C1477.77344,79.062491 1477.71659,81.0421667 1477.71659,82.3430964 C1477.71659,84.0399613 1477.77344,86.2458856 1477.83028,89.0174316 C1477.88712,91.7889775 1478.0008,94.4473991 1478.05764,96.9361343 C1478.11448,99.4814316 1478.17133,101.065172 1478.17133,101.743918 C1478.17133,102.931723 1478.05764,103.949842 1477.77344,104.741713 C1477.54607,105.590145 1476.86397,105.98608 1475.89767,105.98608 C1473.3398,105.98608 1471.40719,103.327659 1470.09984,97.9542532 C1469.07669,94.1080262 1467.7125,91.2233559 1466.0641,89.4133667 C1464.35885,87.5468154 1461.85783,86.6418208 1458.50418,86.6418208 L1434.97182,86.6418208 C1432.12975,86.6418208 1429.96977,87.0377559 1428.54873,87.773064 C1427.1277,88.5083721 1426.38876,90.3183613 1426.38876,93.2030316 L1426.38876,141.507118 C1426.38876,147.898642 1427.75295,152.310491 1430.4245,154.742664 C1433.09605,157.174837 1437.35916,158.419205 1443.10015,158.419205 L1461.80099,158.419205 C1467.20092,158.419205 1471.6914,158.136394 1475.32925,157.51421 C1478.96711,156.948588 1482.09339,155.817345 1484.82178,154.12048 C1487.49333,152.253929 1489.93751,149.821756 1492.04064,146.823961 C1494.14378,143.826167 1496.53112,139.753691 1499.25951,134.719659 C1499.77108,133.70154 1500.3395,132.853107 1501.02159,132.230923 C1501.70369,131.552178 1502.44263,131.325929 1503.29525,131.495615 C1504.14787,131.665302 1504.82997,132.061237 1505.34154,132.626859 C1505.85312,133.19248 1506.08048,134.040913 1506.08048,135.002469 C1506.08048,136.529648 1505.68259,139.131507 1504.82997,142.921172 C1503.97735,146.710837 1502.9542,150.613626 1501.64685,154.62954 C1500.3395,158.645453 1499.25951,161.869496 1498.23636,164.188545 C1497.72479,165.37635 1497.27006,166.394469 1496.81532,167.18634 C1496.36059,167.97821 1495.6785,168.430707 1494.65535,168.430707 C1486.58386,168.430707 1479.08079,168.317583 1472.14613,168.204459 C1465.21147,168.034772 1458.67471,167.865086 1452.42215,167.695399 C1446.16959,167.525713 1440.08755,167.356026 1434.06235,167.18634 C1428.094,167.016653 1421.89828,166.960091 1415.4752,166.960091 C1411.7805,166.960091 1408.54054,167.073215 1405.86899,167.356026 C1403.19744,167.582275 1400.41221,167.865086 1397.5133,168.091334 C1394.61438,168.317583 1390.97653,168.543832 1386.42921,168.543832 Z" id="Path"></path>
                <path d="M1546.38108,167.638837 C1545.13056,167.073215 1544.50531,166.337907 1544.50531,165.489475 C1544.50531,163.962296 1545.30109,162.944178 1546.89265,162.321994 C1548.48421,161.756372 1549.5642,161.360437 1550.07577,161.19075 C1556.66938,159.833259 1561.72827,157.853583 1565.25244,155.251723 C1568.77661,152.649864 1570.5387,148.577388 1570.5387,143.034296 L1570.5387,26.2334316 C1570.5387,22.2175181 1570.14081,19.2197235 1569.28818,17.29661 C1568.43556,15.3734964 1566.90084,13.9594424 1564.74087,12.9978856 C1562.52405,12.092891 1559.34093,11.3010208 1555.13466,10.6222748 C1549.5642,9.6041559 1546.77897,7.9638532 1546.77897,5.58824239 C1546.77897,4.57012347 1547.46106,3.89137752 1548.82526,3.43888023 C1550.18945,3.04294509 1551.95154,2.81669644 1554.11151,2.81669644 C1558.65883,2.81669644 1562.35353,2.92982077 1565.13876,3.04294509 C1567.92399,3.21263158 1570.59554,3.3257559 1573.09656,3.43888023 C1575.65443,3.55200455 1578.72387,3.55200455 1582.4754,3.55200455 C1586.68167,3.55200455 1590.31952,3.49544239 1593.33212,3.43888023 C1596.34472,3.38231807 1599.471,3.21263158 1602.71096,3.04294509 C1605.89408,2.87325861 1609.81614,2.81669644 1614.36346,2.81669644 C1616.58028,2.81669644 1618.34236,3.04294509 1619.64972,3.43888023 C1621.01391,3.83481536 1621.69601,4.57012347 1621.69601,5.58824239 C1621.69601,6.7760478 1621.01391,7.79416671 1619.64972,8.58603698 C1618.28552,9.43446942 1616.18239,10.1132154 1613.34031,10.6222748 C1607.08775,11.8100802 1601.8015,13.1675721 1597.42471,14.7513127 C1593.04791,16.3350532 1590.8311,19.5590964 1590.8311,24.4234424 L1590.8311,142.977734 C1590.8311,148.181453 1592.02477,152.02768 1594.35527,154.572978 C1596.68577,157.118275 1602.02886,158.362642 1610.27088,158.362642 L1641.64736,158.362642 C1646.19468,158.362642 1650.17358,157.627334 1653.64091,156.21328 C1657.10824,154.799226 1659.6661,153.32861 1661.37135,151.801432 C1664.72499,148.973323 1667.22602,146.371464 1668.81758,144.108978 C1670.40914,141.846491 1672.34175,138.452761 1674.50172,133.927788 C1674.84277,132.909669 1675.52487,131.382491 1676.6617,129.402815 C1677.74169,127.366578 1678.87852,126.405021 1680.07219,126.405021 C1681.09533,126.405021 1681.83427,126.91408 1682.34584,127.932199 C1682.85742,128.950318 1683.08478,129.968437 1683.08478,130.929994 C1683.08478,131.09968 1683.02794,131.325929 1682.9711,131.552178 C1682.91426,131.778426 1682.85742,132.004675 1682.85742,132.174361 C1681.66375,136.529648 1680.6406,140.488999 1679.6743,143.995853 C1678.70799,147.502707 1677.96905,150.896437 1677.40064,154.063918 C1676.83222,157.231399 1676.32065,160.625129 1675.9796,164.131983 C1675.80908,165.319788 1675.52487,166.337907 1675.07014,167.129778 C1674.67225,167.97821 1673.76278,168.374145 1672.39859,168.374145 C1663.98605,168.374145 1655.85773,168.261021 1648.12729,168.147896 C1640.34001,167.97821 1632.89378,167.865086 1625.73175,167.751961 C1618.56973,167.638837 1611.69191,167.525713 1605.0983,167.356026 C1598.50469,167.18634 1592.02477,167.129778 1585.60168,167.129778 C1581.39541,167.129778 1576.62073,167.18634 1571.33448,167.356026 C1566.04822,167.525713 1559.39777,167.865086 1551.49681,168.374145 C1549.39367,168.543832 1547.68843,168.204459 1546.38108,167.638837 Z" id="Path"></path>
                <path d="M1719.40648,167.638837 C1718.15596,167.073215 1717.53071,166.337907 1717.53071,165.489475 C1717.53071,163.962296 1718.32649,162.944178 1719.91805,162.321994 C1721.50961,161.756372 1722.5896,161.360437 1723.10117,161.19075 C1729.69478,159.833259 1734.75367,157.853583 1738.27784,155.251723 C1741.80201,152.649864 1743.5641,148.577388 1743.5641,143.034296 L1743.5641,26.2334316 C1743.5641,22.2175181 1743.16621,19.2197235 1742.31358,17.29661 C1741.46096,15.3734964 1739.92624,13.9594424 1737.76627,12.9978856 C1735.54945,12.092891 1732.36633,11.3010208 1728.16006,10.6222748 C1722.5896,9.6041559 1719.80437,7.9638532 1719.80437,5.58824239 C1719.80437,4.57012347 1720.48646,3.89137752 1721.85066,3.43888023 C1723.21485,3.04294509 1724.97694,2.81669644 1727.13691,2.81669644 C1731.68423,2.81669644 1735.37893,2.92982077 1738.16416,3.04294509 C1740.94939,3.21263158 1743.62094,3.3257559 1746.12196,3.43888023 C1748.67983,3.55200455 1751.74927,3.55200455 1755.5008,3.55200455 C1759.70707,3.55200455 1763.34492,3.49544239 1766.35752,3.43888023 C1769.37012,3.38231807 1772.4964,3.21263158 1775.73636,3.04294509 C1778.91948,2.87325861 1782.84154,2.81669644 1787.38886,2.81669644 C1789.54884,2.81669644 1791.36776,3.04294509 1792.67512,3.43888023 C1794.03931,3.83481536 1794.72141,4.57012347 1794.72141,5.58824239 C1794.72141,6.7760478 1794.03931,7.79416671 1792.67512,8.58603698 C1791.31092,9.43446942 1789.20779,10.1132154 1786.36571,10.6222748 C1780.11315,11.8100802 1774.8269,13.1675721 1770.45011,14.7513127 C1766.07331,16.3350532 1763.8565,19.5590964 1763.8565,24.4234424 L1763.8565,142.977734 C1763.8565,148.181453 1765.05017,152.02768 1767.38067,154.572978 C1769.76801,157.061713 1775.05426,158.362642 1783.29627,158.362642 L1814.67276,158.362642 C1819.22008,158.362642 1823.25582,157.627334 1826.66631,156.21328 C1830.13364,154.799226 1832.6915,153.32861 1834.39675,151.801432 C1837.75039,148.973323 1840.25142,146.371464 1841.84298,144.108978 C1843.43454,141.846491 1845.36715,138.452761 1847.52712,133.927788 C1847.86817,132.909669 1848.60711,131.382491 1849.6871,129.402815 C1850.76709,127.366578 1851.90391,126.405021 1853.09759,126.405021 C1854.12073,126.405021 1854.85967,126.91408 1855.37124,127.932199 C1855.88282,128.950318 1856.11018,129.968437 1856.11018,130.929994 C1856.11018,131.09968 1856.05334,131.325929 1855.9965,131.552178 C1855.88282,131.778426 1855.88282,132.004675 1855.88282,132.174361 C1854.68915,136.529648 1853.666,140.488999 1852.6997,143.995853 C1851.79023,147.502707 1850.99445,150.896437 1850.42604,154.063918 C1849.85762,157.231399 1849.34605,160.625129 1849.06184,164.131983 C1848.89132,165.319788 1848.60711,166.337907 1848.15238,167.129778 C1847.69765,167.921648 1846.84503,168.374145 1845.48083,168.374145 C1837.06829,168.374145 1828.93997,168.261021 1821.20953,168.147896 C1813.42225,167.97821 1805.97602,167.865086 1798.81399,167.751961 C1791.65197,167.638837 1784.77415,167.525713 1778.18054,167.356026 C1771.58693,167.18634 1765.10701,167.129778 1758.68392,167.129778 C1754.47766,167.129778 1749.70297,167.18634 1744.41672,167.356026 C1739.13046,167.525713 1732.48001,167.865086 1724.57905,168.374145 C1722.41907,168.543832 1720.71383,168.204459 1719.40648,167.638837 Z" id="Path"></path>
                <path d="M1900.38968,168.543832 C1898.17286,168.543832 1896.41078,168.317583 1895.10342,167.921648 C1893.73923,167.525713 1893.05713,166.790405 1893.05713,165.772286 C1893.05713,163.736048 1895.84236,162.265432 1901.41283,161.247313 C1907.83591,160.059507 1912.55375,158.136394 1915.56635,155.477972 C1918.57895,152.81955 1920.11366,148.407702 1920.11366,142.412113 L1920.11366,29.1181018 C1920.11366,23.0659505 1918.86315,18.8237883 1916.41897,16.278491 C1913.97479,13.7897559 1909.54115,11.9232046 1903.11807,10.7353991 C1900.276,10.2263397 1898.11602,9.54759374 1896.80867,8.69916131 C1895.44447,7.85072888 1894.76237,6.83260996 1894.76237,5.70136671 C1894.76237,4.6832478 1895.44447,4.00450185 1896.80867,3.55200455 C1898.17286,3.15606942 1899.93495,2.92982077 1902.09492,2.92982077 C1908.51801,2.92982077 1913.91795,3.04294509 1918.40842,3.15606942 C1922.8989,3.3257559 1927.27569,3.43888023 1931.5388,3.55200455 C1935.85875,3.66512888 1940.91764,3.66512888 1946.82915,3.66512888 C1952.39961,3.66512888 1958.25428,3.60856671 1964.39316,3.55200455 C1970.53204,3.49544239 1976.21618,3.43888023 1981.4456,3.43888023 C1987.18659,3.26919374 1992.01811,3.15606942 1995.99701,3.04294509 C1999.97591,2.98638293 2002.30641,2.92982077 2002.93167,2.92982077 C2003.78429,2.92982077 2004.69375,3.09950725 2005.7169,3.43888023 C2006.74005,3.7782532 2007.30846,4.34387482 2007.47899,5.19230725 C2008.33161,9.88696671 2009.18423,14.525064 2010.03685,19.1631613 C2010.88947,23.8012586 2011.28736,27.76061 2011.28736,31.0977775 C2011.28736,32.6249559 2010.88947,33.5865127 2010.15053,34.0955721 C2009.4116,34.6046316 2008.61582,34.8308802 2007.76319,34.8308802 C2006.91057,34.8308802 2006.34216,34.6046316 2006.00111,34.2086964 C2005.66006,33.8127613 2005.31901,33.1340154 2004.97796,32.3421451 C2004.12534,29.514037 2003.27272,26.742491 2002.4201,24.1406316 C2001.56747,21.5387721 2000.54433,19.6722208 1999.4075,18.4844154 C1997.02016,15.8259937 1994.40545,14.0160046 1991.56338,13.0544478 C1988.72131,12.1494532 1985.65187,11.6969559 1982.46874,11.6969559 L1949.33017,11.6969559 C1947.96598,11.6969559 1946.14705,12.432264 1943.75971,13.9594424 C1941.37237,15.4866208 1940.23554,17.4097343 1940.23554,19.7287829 L1940.23554,73.0669018 C1940.23554,74.5940802 1940.69027,75.89501 1941.65658,76.969691 C1942.62288,78.0443721 1943.64603,78.6099937 1944.8397,78.6099937 L1969.90678,78.6099937 C1974.79515,78.6099937 1978.14879,77.7049991 1980.02456,75.9515721 C1981.90033,74.1981451 1983.37821,70.9741018 1984.57188,66.2794424 C1985.59502,62.6029018 1987.12974,60.7363505 1989.1192,60.7363505 C1989.80129,60.7363505 1990.54023,61.0757235 1991.27917,61.7544694 C1992.01811,62.4332154 1992.416,63.4513343 1992.416,64.752264 C1992.416,65.43101 1992.35916,66.9581883 1992.30232,69.277237 C1992.18863,71.6528478 1992.07495,74.0850208 1991.90443,76.5737559 C1991.7339,79.062491 1991.67706,81.0421667 1991.67706,82.3430964 C1991.67706,84.0399613 1991.7339,86.2458856 1991.79074,89.0174316 C1991.84759,91.7889775 1991.96127,94.4473991 1992.01811,96.9361343 C1992.07495,99.4814316 1992.13179,101.065172 1992.13179,101.743918 C1992.13179,102.931723 1992.01811,103.949842 1991.7339,104.741713 C1991.50654,105.590145 1990.82444,105.98608 1989.85813,105.98608 C1987.30027,105.98608 1985.36766,103.327659 1984.06031,97.9542532 C1983.03716,94.1080262 1981.67296,91.2233559 1980.02456,89.4133667 C1978.31932,87.5468154 1975.81829,86.6418208 1972.46465,86.6418208 L1948.93228,86.6418208 C1946.09021,86.6418208 1943.93024,87.0377559 1942.5092,87.773064 C1941.08816,88.5083721 1940.34922,90.3183613 1940.34922,93.2030316 L1940.34922,141.507118 C1940.34922,147.898642 1941.71342,152.310491 1944.38497,154.742664 C1947.05652,157.174837 1951.31963,158.419205 1957.06061,158.419205 L1975.76145,158.419205 C1981.16139,158.419205 1985.65187,158.136394 1989.28972,157.51421 C1992.92757,156.948588 1996.05385,155.817345 1998.78224,154.12048 C2001.45379,152.253929 2003.89797,149.821756 2006.00111,146.823961 C2008.10424,143.826167 2010.49158,139.753691 2013.21997,134.719659 C2013.73155,133.70154 2014.29996,132.853107 2014.98206,132.230923 C2015.66416,131.552178 2016.4031,131.325929 2017.25572,131.495615 C2018.10834,131.665302 2018.79044,132.061237 2019.30201,132.626859 C2019.81358,133.19248 2020.04095,134.040913 2020.04095,135.002469 C2020.04095,136.529648 2019.64306,139.131507 2018.79044,142.921172 C2017.93781,146.710837 2016.91467,150.613626 2015.60731,154.62954 C2014.29996,158.645453 2013.21997,161.869496 2012.19683,164.188545 C2011.68525,165.37635 2011.23052,166.394469 2010.77579,167.18634 C2010.32106,167.97821 2009.63896,168.430707 2008.61582,168.430707 C2000.54433,168.430707 1993.04126,168.317583 1986.1066,168.204459 C1979.17194,168.034772 1972.63517,167.865086 1966.38261,167.695399 C1960.13005,167.525713 1954.04802,167.356026 1948.02282,167.18634 C1942.05447,167.016653 1935.85875,166.960091 1929.43566,166.960091 C1925.74097,166.960091 1922.50101,167.073215 1919.82946,167.356026 C1917.15791,167.582275 1914.37268,167.865086 1911.47376,168.091334 C1908.57485,168.317583 1904.99384,168.543832 1900.38968,168.543832 Z" id="Path"></path>
                <path d="M2212.79033,172.559745 C2208.07249,172.559745 2203.58202,172.16381 2199.37575,171.428502 C2195.16948,170.693194 2191.24742,169.27914 2187.72325,167.299464 C2184.19908,165.319788 2180.90228,162.49168 2177.88968,158.984826 C2173.85393,153.950794 2169.98872,149.14301 2166.23718,144.504913 C2162.54248,139.866815 2158.62042,134.549972 2154.471,128.497821 C2150.32157,122.445669 2145.31952,114.753215 2139.40801,105.363896 C2136.85015,101.178296 2133.26913,97.897691 2128.55129,95.5220802 C2124.8566,93.6555289 2121.1619,92.3545991 2117.52405,91.619291 C2113.8862,90.8839829 2110.8736,90.4314856 2108.5431,90.205237 C2107.1789,90.0355505 2106.2126,90.4314856 2105.64418,91.4496046 C2105.01893,92.4677235 2104.73472,93.712091 2104.73472,95.2392694 L2104.73472,139.527442 C2104.73472,144.900848 2105.98523,149.538945 2108.5431,153.498296 C2111.10096,157.457648 2115.42092,160.002945 2121.67348,161.19075 C2124.51555,161.69981 2126.67552,162.265432 2127.98288,162.944178 C2129.34707,163.622923 2130.02917,164.527918 2130.02917,165.715723 C2130.02917,166.733842 2129.34707,167.412588 2127.98288,167.865086 C2126.61868,168.261021 2124.8566,168.487269 2122.69662,168.487269 C2118.14931,168.487269 2114.62514,168.317583 2112.18095,167.97821 C2109.73677,167.638837 2107.51995,167.356026 2105.58734,167.073215 C2103.65473,166.846967 2101.09687,166.67728 2097.85691,166.67728 C2093.65064,166.67728 2089.8991,166.790405 2086.6023,167.073215 C2083.30549,167.299464 2080.00869,167.638837 2076.71188,167.97821 C2073.41508,168.317583 2069.49302,168.487269 2064.9457,168.487269 C2062.72888,168.487269 2060.9668,168.261021 2059.65945,167.865086 C2058.29525,167.46915 2057.61315,166.733842 2057.61315,165.715723 C2057.61315,163.679486 2060.39838,162.208869 2065.96885,161.19075 C2072.39193,160.002945 2077.05293,158.079832 2080.00869,155.42141 C2082.96444,152.762988 2084.44232,148.294578 2084.44232,142.07274 L2084.44232,34.8874424 C2084.44232,28.4959181 2084.15811,23.6881343 2083.53286,20.4075289 C2082.96444,17.1269235 2081.60025,14.8078748 2079.49711,13.5069451 C2077.39398,12.1494532 2073.86981,11.2444586 2068.98144,10.7353991 C2066.13937,10.3960262 2063.9794,9.77384239 2062.67204,8.8688478 C2061.30785,7.9638532 2060.62575,6.88917212 2060.62575,5.70136671 C2060.62575,4.6832478 2061.30785,4.00450185 2062.67204,3.55200455 C2064.03624,3.15606942 2065.79832,2.92982077 2067.9583,2.92982077 C2072.50561,2.92982077 2075.9161,2.92982077 2078.18976,2.92982077 C2080.46342,2.92982077 2082.62339,2.98638293 2084.61285,3.04294509 C2086.65914,3.15606942 2089.33069,3.15606942 2092.68433,3.15606942 C2095.86745,3.15606942 2098.76637,3.04294509 2101.26739,2.76013428 C2103.82526,2.53388563 2106.61049,2.30763698 2109.73677,2.1379505 C2112.86305,1.96826401 2116.84195,1.91170185 2121.73032,1.91170185 C2140.26063,1.91170185 2154.41416,5.36199374 2164.13405,12.2060154 C2173.85393,19.1065991 2178.68546,29.4009127 2178.68546,43.1455181 C2178.68546,50.7248478 2177.15074,57.2294964 2174.13814,62.659464 C2171.0687,68.0894316 2167.31717,72.6709667 2162.76985,76.4040694 C2158.22253,80.08061 2153.56153,83.1349667 2148.84369,85.4540154 C2148.1616,85.6237018 2147.87739,86.019637 2147.99107,86.5852586 C2148.04791,87.1508802 2148.38896,87.8861883 2148.84369,88.7346208 C2154.07311,96.5967613 2159.07516,104.062967 2163.90668,111.133237 C2168.7382,118.203507 2173.96762,125.047529 2179.70861,131.778426 C2185.44959,138.509323 2192.27057,145.466469 2200.22837,152.649864 C2204.60516,156.496091 2209.09564,158.871702 2213.64296,159.720134 C2218.19027,160.568567 2223.41969,160.964502 2229.3312,160.964502 C2231.88906,160.964502 2233.13958,161.869496 2233.13958,163.736048 C2233.13958,166.224783 2231.88906,168.147896 2229.3312,169.392264 C2226.77333,170.636632 2223.93126,171.485064 2220.74814,171.880999 C2217.6787,172.333496 2215.00715,172.559745 2212.79033,172.559745 Z M2118.20615,84.4358964 C2125.93659,84.4358964 2132.64388,82.6824694 2138.32802,79.1756154 C2144.01217,75.6687613 2148.38896,71.030664 2151.4584,65.3178856 C2154.58468,59.6051073 2156.1194,53.5529559 2156.1194,47.2179937 C2156.1194,40.31741 2155.26678,34.03901 2153.44785,28.3262316 C2151.68577,22.6134532 2148.1616,18.0319181 2142.8185,14.5816262 C2137.53224,11.1313343 2129.5176,9.43446942 2118.88824,9.43446942 C2113.48831,9.43446942 2109.96414,11.1313343 2108.25889,14.5816262 C2106.55365,18.0319181 2105.58734,24.0840694 2105.24629,32.8512046 C2105.07577,37.0368046 2104.96209,42.6930208 2104.8484,49.8198532 C2104.79156,56.9466856 2104.73472,65.5441343 2104.73472,75.6121991 C2104.73472,79.7977991 2105.92839,82.3430964 2108.25889,83.1915289 C2110.58939,84.0399613 2113.99988,84.4358964 2118.20615,84.4358964 Z" id="Shape"></path>
                <path d="M2308.90924,171.315378 C2301.80406,171.315378 2295.26729,170.240696 2289.29894,168.147896 C2283.33058,166.055096 2277.93065,163.057302 2273.2128,159.211075 C2272.53071,158.532329 2271.90545,157.797021 2271.33704,156.948588 C2270.76862,156.100156 2270.25705,155.195161 2269.916,154.177042 C2269.06338,150.839875 2268.5518,146.484588 2268.2676,141.111183 C2268.04023,135.737778 2267.69918,131.269367 2267.35813,127.762513 C2267.35813,126.574707 2267.86971,125.726275 2268.89285,125.104091 C2269.916,124.538469 2271.10967,124.199096 2272.41702,124.199096 C2273.26965,124.199096 2274.12227,124.425345 2274.97489,124.82128 C2275.82751,125.217215 2276.33908,125.952523 2276.50961,126.970642 C2279.86325,139.866815 2284.92214,149.14301 2291.5726,154.686102 C2298.22305,160.229194 2305.21455,163.00074 2312.43341,163.00074 C2318.34492,163.00074 2323.57434,161.756372 2328.12165,159.211075 C2332.66897,156.665778 2336.24998,153.102361 2338.86469,148.520826 C2341.4794,143.882729 2342.78675,138.509323 2342.78675,132.287486 C2342.78675,125.386902 2341.64992,119.84381 2339.37626,115.545086 C2337.1026,111.246361 2333.86264,107.513259 2329.65637,104.345778 C2325.4501,101.178296 2320.27753,97.7280046 2314.25234,94.051464 C2307.65873,89.865864 2301.1788,85.6237018 2294.75572,81.3249775 C2288.33263,77.0262532 2283.04638,72.1053451 2278.84011,66.4491289 C2274.63384,60.8494748 2272.53071,54.0054532 2272.53071,45.917064 C2272.53071,37.3761775 2274.46332,29.6271613 2278.32854,22.7831397 C2282.19375,15.8825559 2288.04842,10.3960262 2295.89255,6.26698834 C2303.73667,2.1379505 2313.57024,0.10171266 2325.33642,0.10171266 C2331.41846,0.10171266 2336.70471,0.723896444 2341.13835,1.96826401 C2345.57198,3.21263158 2349.20983,4.45699915 2351.88138,5.64480455 C2353.24558,6.15386401 2354.38241,7.00229644 2355.29187,8.13353969 C2356.20133,9.32134509 2356.82659,10.5657127 2357.16764,11.9232046 C2358.19078,15.4300586 2359.27077,19.4459721 2360.46444,24.0275073 C2361.65811,28.5524802 2362.22653,32.8512046 2362.22653,36.8671181 C2362.22653,38.7336694 2360.97602,39.638664 2358.41815,39.638664 C2356.88343,39.638664 2355.40555,39.299291 2353.98452,38.6205451 C2352.56348,37.9417991 2351.65402,37.0933667 2351.31297,36.0752478 C2347.7888,27.1949883 2343.63937,20.4075289 2338.92153,15.7128694 C2334.20369,11.01821 2328.23534,8.64259915 2320.95963,8.64259915 C2315.90074,8.64259915 2311.1829,9.54759374 2306.80611,11.4141451 C2302.42931,13.2806964 2298.8483,16.278491 2296.06307,20.464091 C2293.27784,24.649691 2291.91364,30.3059073 2291.91364,37.3196154 C2291.91364,42.3536478 2293.56205,46.9351829 2296.85885,51.0642208 C2300.15566,55.1932586 2304.47561,59.0960478 2309.87554,62.7725883 C2315.27548,66.4491289 2321.07331,70.2387937 2327.32587,74.0850208 C2333.23738,77.5918748 2338.97837,81.494664 2344.66252,85.680264 C2350.28982,89.865864 2354.95082,94.8433343 2358.58867,100.669237 C2362.22653,106.438578 2364.04545,113.56541 2364.04545,121.93661 C2364.04545,131.834988 2361.7718,140.545561 2357.22448,148.011767 C2352.67716,155.477972 2346.25408,161.247313 2338.01207,165.263226 C2329.77006,169.27914 2320.05017,171.315378 2308.90924,171.315378 Z" id="Path"></path>
            </g>
            <g id="Group" fill="#B09F7E">
                <g transform="translate(1121.801122, 0.000000)" id="Path">
                    <path d="M55.1673165,108.982494 C47.7779269,108.982494 40.7864276,107.707423 34.2496598,105.157279 C27.7128921,102.607136 21.8582219,99.0137527 16.7993321,94.3771288 C11.7404423,89.7405049 7.76154026,84.234514 4.91946735,77.8591561 C2.07739443,71.4837982 0.599516513,64.4709045 0.599516513,56.8204751 C0.599516513,49.2859612 2.02055297,42.1571519 4.91946735,35.492005 C7.76154026,28.8268582 11.7972838,22.8572049 17.026698,17.6989608 C22.2561121,12.5407167 28.3949896,8.48367073 35.5570134,5.41190738 C42.7190371,2.39810183 50.5631584,0.891199061 59.2599015,0.891199061 C61.2493526,0.891199061 63.6935353,1.06507246 66.5924496,1.47077705 C69.491364,1.81852384 72.5039613,2.28218624 75.6302415,2.80380643 C78.7565217,3.32542662 81.6554361,3.90500461 84.3269846,4.5425404 C86.9985332,5.18007618 89.0448257,5.81761197 90.5227036,6.45514776 C91.2616426,6.80289456 91.8300571,7.15064135 92.2279473,7.67226154 C92.6258376,8.19388173 92.9100448,8.83141752 93.0237278,9.64282671 C93.5353009,13.1202946 93.9900326,16.481847 94.2742398,19.6695259 C94.5584471,22.8572049 94.7289715,25.6391792 94.7289715,27.9574912 C94.7289715,28.8268582 94.5016057,29.5803096 94.046874,30.2178453 C93.5921423,30.8553811 92.9668863,31.2031279 92.2279473,31.2031279 C91.0911182,31.2031279 90.2384963,30.7974233 89.7269232,29.9860141 C89.2153501,29.174605 88.7606184,28.305238 88.3058867,27.3779132 C87.4532648,25.4653058 86.5438015,23.6106563 85.4638138,21.6980489 C84.4406676,19.8433993 83.133314,18.0467076 81.5417532,16.3659314 C80.5186069,15.322691 79.040729,14.163535 77.2218023,12.9464212 C75.4028757,11.7293075 73.0723759,10.6860671 70.2871444,9.8167001 C67.501913,8.94733312 64.034584,8.54162853 59.9988405,8.54162853 C54.2578532,8.54162853 49.0852805,9.7587423 44.5379638,12.1350121 C39.9338057,14.5112818 36.125428,17.8728342 32.9991478,22.1037535 C29.8728676,26.3346728 27.4855263,31.1451701 25.837124,36.5352454 C24.1887217,41.9253207 23.3360998,47.4892694 23.3360998,53.3430071 C23.3360998,60.6456898 24.1887217,67.3108367 25.837124,73.1645744 C27.4855263,79.0762699 29.8728676,84.1185984 32.8854648,88.2915599 C35.8980621,92.4645214 39.479074,95.7101582 43.6853419,97.9125545 C47.8347684,100.114951 52.5526094,101.274107 57.7251821,101.274107 C61.4767184,101.274107 64.4324742,100.694529 66.5356082,99.5933307 C68.6955836,98.4921325 70.230303,97.5068499 71.1397663,96.637483 C72.2765955,95.6522004 73.2429003,94.2612132 73.9249978,92.3486058 C74.6639367,90.4359985 75.0618269,88.2336021 75.1755098,85.683459 C75.1755098,84.6981764 75.1755098,83.4810626 75.2323513,82.0321176 C75.2891928,80.5252148 75.3460342,79.0762699 75.4028757,77.5693671 C75.4597171,76.0624643 75.4597171,74.8453506 75.4597171,73.9180258 C75.4597171,72.7588698 75.2891928,71.7156294 74.8913026,70.7883046 C74.5502538,69.8609798 73.8113148,69.1654863 72.7881686,68.6438661 C71.8218638,67.8904147 70.6281932,67.2528789 69.2071567,66.6733009 C67.7292788,66.0937229 66.2514009,65.6880183 64.773523,65.3982293 C63.2388036,65.1084403 62.045133,64.9345669 61.0788282,64.8186513 C60.3398892,64.7027357 59.5441088,64.3549889 58.7483284,63.7754109 C57.8957065,63.195833 57.4978163,62.5003394 57.4978163,61.6309724 C57.4978163,60.7616054 57.8957065,60.1240696 58.6914869,59.718365 C59.4872673,59.3126604 60.1693648,59.0808292 60.7946209,59.0808292 C63.1819621,59.0808292 65.6829863,59.138787 68.2408519,59.2547026 C70.7987176,59.3706182 73.3565832,59.4865338 75.9144488,59.5444916 C78.4723144,59.6604072 80.9164971,59.718365 83.3606798,59.718365 C86.2595942,59.718365 89.1585086,59.6024494 92.057423,59.3706182 C94.8994959,59.138787 97.8552517,59.0228714 100.867849,59.0228714 C101.493105,59.0228714 102.118361,59.1967448 102.800459,59.6024494 C103.482556,59.9501962 103.823605,60.6456898 103.823605,61.5730146 C103.823605,62.4423816 103.482556,63.1378752 102.743617,63.6594953 C102.004678,64.1811155 101.322581,64.5288623 100.697325,64.6447779 C97.8552517,65.3982293 95.9794836,66.3255541 95.0131788,67.5426679 C94.046874,68.7018239 93.3647765,70.3826 93.0805692,72.4690808 C92.682679,74.7873928 92.3984717,76.8738735 92.2279473,78.6705653 C92.057423,80.4672571 92.0005815,82.3798644 92.0005815,84.4083874 L92.0005815,89.3348003 C92.0005815,89.8564205 92.1711059,90.3200829 92.5689961,90.7837453 C92.9100448,91.1894499 93.3079351,91.7110701 93.7626667,92.2326902 C94.1605569,92.7543104 94.5584471,93.2759306 94.9563373,93.7975508 C95.2973861,94.319171 95.5247519,94.8407912 95.5247519,95.3624114 C95.5247519,95.9999472 95.3542276,96.637483 94.9563373,97.3329766 C94.6152886,98.0284701 93.8195082,98.4921325 92.682679,98.6660059 C91.9437401,98.7819215 90.5227036,99.3614995 88.4764111,100.40474 C86.3732771,101.44798 83.7585701,102.665094 80.5754484,103.998123 C77.3923267,105.331153 73.6976319,106.490309 69.491364,107.417634 C65.1145717,108.518832 60.3967307,108.982494 55.1673165,108.982494 Z"></path>
                    <path d="M119.22764,138.656887 C105.98358,138.656887 99.3899711,135.758997 99.3899711,129.90526 C99.3899711,127.876737 100.242593,125.964129 101.947837,124.10948 C103.65308,122.25483 105.244641,121.327505 106.722519,121.327505 C107.973031,121.327505 109.166702,121.617294 110.303531,122.196872 C111.44036,122.77645 112.520348,123.761733 113.600336,125.15272 C115.362421,127.297159 116.783457,128.977935 117.806604,130.195049 C118.82975,131.412162 120.02342,132.049698 121.273933,132.049698 C124.627579,132.049698 127.128603,129.90526 128.777005,125.67434 C130.425407,121.443421 131.278029,114.952147 131.278029,106.258478 L131.278029,19.0899479 C131.278029,15.61248 130.53909,13.0623368 129.118054,11.6133919 C127.697017,10.1644469 124.968627,8.94733312 120.989725,8.13592393 C118.261335,7.61430374 116.953982,6.51310556 116.953982,4.77437159 C116.953982,4.1368358 117.29503,3.61521561 118.033969,3.26746882 C118.772908,2.91972202 119.568689,2.68789083 120.534994,2.68789083 C123.149701,2.68789083 125.593883,2.74584863 127.981225,2.86176423 C130.311724,2.97767982 132.642224,3.09359542 134.915883,3.15155322 C137.189541,3.26746882 139.463199,3.32542662 141.623175,3.32542662 C143.726309,3.32542662 145.772601,3.26746882 147.875735,3.15155322 C149.978869,3.03563762 152.138844,2.91972202 154.412503,2.86176423 C156.686161,2.74584863 159.130344,2.68789083 161.574527,2.68789083 C162.597673,2.68789083 163.450295,2.86176423 164.075551,3.26746882 C164.700807,3.61521561 164.985014,4.1947936 164.985014,4.94824499 C164.985014,5.81761197 164.643965,6.45514776 163.961868,6.91881015 C163.27977,7.38247255 162.256624,7.78817714 160.892429,8.13592393 C156.856685,9.17916431 154.241978,10.4542359 153.105149,11.9031809 C151.96832,13.3521258 151.399905,15.7863534 151.399905,19.3217791 L151.399905,95.3044536 C151.399905,98.7239637 150.774649,102.259389 149.580979,105.910731 C148.387308,109.562072 146.795747,113.155456 144.919979,116.574966 C142.98737,120.052434 140.997919,123.124197 138.894785,125.906171 C136.052712,129.615471 132.983273,132.687234 129.686468,135.121461 C126.389664,137.439773 122.865493,138.656887 119.22764,138.656887 Z"></path>
                </g>
                <rect id="Rectangle" x="0.00920240394" y="46.8517336" width="1072.88253" height="11.5915598"></rect>
                <rect id="Rectangle" x="1315.9458" y="46.8517336" width="1048.09965" height="11.5915598"></rect>
            </g>
            <g id="Group" transform="translate(797.000000, 571.000000)" fill="#B09F7E">
                <path d="M52.6624253,18.4599745 C48.3912164,12.2753185 42.1267766,9.12676635 33.9260556,9.12676635 C31.3633302,9.12676635 28.8575543,9.46411122 26.4087279,10.138801 C23.9599014,10.8134907 21.7388728,11.8255253 19.8025915,13.231129 C17.8663101,14.6367326 16.2717254,16.4359052 15.0757869,18.6286469 C13.8798484,20.8213886 13.3103539,23.4076992 13.3103539,26.3875789 C13.3103539,30.7168381 14.5632419,34.0340627 17.0120683,36.451701 C19.4608947,38.8131151 22.5361651,40.7809601 26.1809301,42.2990121 C29.825695,43.817064 33.8121566,45.2226676 38.140315,46.4033747 C42.4684734,47.6403059 46.454935,49.2145819 50.0996999,51.2386512 C53.7444649,53.2627204 56.8197353,55.9614794 59.2685617,59.2787039 C61.7173881,62.5959285 62.9702761,67.1500843 62.9702761,72.8849471 C62.9702761,77.2142063 62.0590849,81.0936723 60.1797529,84.5795693 C58.300421,88.0654663 55.8515946,90.9328977 52.7763242,93.2943118 C49.7010538,95.6557259 46.2840866,97.4548986 42.5254228,98.6918298 C38.766759,99.928761 34.9511457,100.603451 31.1355324,100.603451 C25.2127894,100.603451 19.5747936,99.4789678 14.2784946,97.2862261 C8.92524612,95.0934845 4.42623941,91.438915 0.667575573,86.4349661 L9.66558899,80.0816377 C11.7727187,83.5675347 14.6771408,86.3787419 18.3788552,88.5152595 C22.0805695,90.651777 26.5226268,91.6638116 31.591128,91.6638116 C34.0399545,91.6638116 36.4887809,91.2702426 38.9376073,90.5393287 C41.3864338,89.7521907 43.6074624,88.6277078 45.5437438,87.16588 C47.4800251,85.7040522 49.1315592,83.8486554 50.3844472,81.7121379 C51.6373351,79.5756204 52.2637791,77.101758 52.2637791,74.2905507 C52.2637791,70.9733261 51.5803857,68.218343 50.1566494,65.9693772 C48.7329131,63.7766356 46.8535812,61.9212388 44.5756031,60.459411 C42.297625,58.9975832 39.6210008,57.760652 36.6596293,56.7486174 C33.6982577,55.7365828 30.6229873,54.7807723 27.4907675,53.7687377 C24.3585476,52.7567031 21.2832772,51.6322202 18.3219057,50.395289 C15.3605342,49.1583578 12.7408594,47.5278576 10.4059319,45.6162366 C8.07100434,43.7046157 6.19167242,41.2307533 4.82488557,38.3070977 C3.40114927,35.3834422 2.71775585,31.7288727 2.71775585,27.2871653 C2.71775585,22.6767854 3.62894708,18.684871 5.39438009,15.2551982 C7.1598131,11.8255253 9.55169009,9.01431806 12.5130616,6.76535225 C15.4744331,4.51638644 18.8344508,2.82966208 22.5361651,1.76140332 C26.294829,0.69314456 30.1104423,0.130903107 34.0399545,0.130903107 C39.5071019,0.130903107 44.4617042,0.974265286 48.9607109,2.71721379 C53.4027681,4.40393815 57.5600781,7.44004199 61.3756914,11.7693012 L52.6624253,18.4599745 Z" id="Path"></path>
                <path d="M106.365759,10.7572666 C106.365759,12.6688875 105.682365,14.1869394 104.315578,15.4238706 C102.948791,16.6608018 101.468106,17.2230433 99.8165715,17.2230433 C98.1650374,17.2230433 96.6843517,16.6045777 95.3175648,15.4238706 C93.950778,14.1869394 93.2673846,12.6688875 93.2673846,10.7572666 C93.2673846,8.84564562 93.950778,7.3275937 95.3175648,6.09066251 C96.6843517,4.85373131 98.1650374,4.29148986 99.8165715,4.29148986 C101.468106,4.29148986 102.948791,4.90995545 104.315578,6.09066251 C105.682365,7.3275937 106.365759,8.90186977 106.365759,10.7572666 Z M104.315578,98.1858125 L95.3175648,98.1858125 L95.3175648,35.0460973 L104.315578,35.0460973 L104.315578,98.1858125 Z" id="Shape"></path>
                <path d="M148.337505,35.0460973 C148.508353,36.7328217 148.622252,38.419546 148.679201,40.1062704 C148.736151,41.7929948 148.736151,43.4797191 148.736151,45.1664435 L149.020898,45.1664435 C150.045988,43.4797191 151.298876,41.905443 152.836511,40.4436153 C154.374147,39.0380116 156.13958,37.7448563 158.018912,36.7328217 C159.955193,35.7207871 161.948424,34.8774249 164.112503,34.3151834 C166.276582,33.752942 168.383712,33.4155971 170.490841,33.4155971 C178.691563,33.4155971 184.728205,35.5521146 188.657717,39.8251497 C192.587229,44.0981847 194.52351,50.1703924 194.52351,58.0979969 L194.52351,98.1858125 L185.525497,98.1858125 L185.525497,63.2143941 C185.525497,56.1863759 184.272609,50.8450821 181.823782,47.0780644 C179.374956,43.3672708 174.819,41.4556499 168.155914,41.4556499 C167.700318,41.4556499 166.44743,41.6243223 164.340301,42.0178913 C162.233171,42.3552362 160.012142,43.3672708 157.734164,44.997771 C155.399237,46.6282712 153.349056,49.0459095 151.526674,52.3069099 C149.704292,55.5679103 148.7931,60.065842 148.7931,65.8007048 L148.7931,98.1858125 L139.795087,98.1858125 L139.795087,48.9334612 C139.795087,47.2467368 139.738137,45.0539952 139.567289,42.4676845 C139.45339,39.8813738 139.282542,37.4075114 139.111693,35.0460973 L148.337505,35.0460973 L148.337505,35.0460973 Z" id="Path"></path>
                <path d="M276.018176,49.8892717 C274.480541,47.5278576 272.316462,45.5600125 269.525939,43.9295123 C266.735415,42.2990121 263.603196,41.511874 260.01538,41.511874 C256.256716,41.3994257 252.953648,42.0178913 249.992277,43.2548225 C247.030905,44.4917537 244.525129,46.2909264 242.417999,48.5398922 C240.31087,50.788858 238.716285,53.487617 237.634245,56.579945 C236.552206,59.6722729 235.982711,63.0457217 235.982711,66.644067 C235.982711,70.2424123 236.552206,73.615861 237.634245,76.708189 C238.716285,79.800517 240.31087,82.4992759 242.417999,84.7482417 C244.525129,86.9972075 247.030905,88.7401561 249.992277,90.0333114 C252.953648,91.3264667 256.313666,91.8887082 260.01538,91.7762599 C263.546246,91.7762599 266.735415,90.9891219 269.525939,89.3586216 C272.316462,87.7281214 274.480541,85.7602764 276.018176,83.3988622 L283.421605,88.9088285 C280.232436,92.6196221 276.64462,95.318381 272.601209,97.0613296 C268.614747,98.8042781 264.400488,99.7600885 260.01538,99.8163127 C254.83298,99.928761 250.106175,99.1416229 245.948865,97.4548986 C241.791555,95.7681742 238.20374,93.4629843 235.242368,90.4831046 C232.280997,87.5032249 230.003019,83.9611037 228.465384,79.9129652 C226.927748,75.8086026 226.130456,71.3668952 226.130456,66.644067 C226.130456,61.8650146 226.927748,57.4233071 228.465384,53.3751687 C230.003019,49.2708061 232.280997,45.7286849 235.242368,42.8050294 C238.20374,39.8251497 241.791555,37.5199597 245.948865,35.8332354 C250.106175,34.146511 254.83298,33.359373 260.01538,33.4718213 C264.400488,33.5842695 268.557798,34.4838559 272.601209,36.2268044 C276.587671,37.9697529 280.232436,40.724736 283.421605,44.3793054 L276.018176,49.8892717 Z" id="Path"></path>
                <path d="M315.256349,69.0617052 C315.541096,72.2102573 316.281439,75.190137 317.591276,77.9451202 C318.844164,80.7563274 320.552648,83.1177415 322.659777,85.1418108 C324.766907,87.16588 327.158784,88.7401561 329.892358,89.9208631 C332.625931,91.1015702 335.587303,91.6638116 338.776472,91.6638116 C343.617176,91.6638116 347.774486,90.5393287 351.305352,88.346587 C354.836218,86.1538454 357.455892,83.6237588 359.278275,80.7001033 L366.226108,86.3787419 C362.410495,91.1577943 358.196235,94.5874672 353.58333,96.6115364 C348.970424,98.6918298 344.015822,99.7038644 338.776472,99.7038644 C334.049668,99.7038644 329.66456,98.8605022 325.564199,97.230002 C321.520788,95.5432776 318.046872,93.2380877 315.0855,90.258208 C312.181078,87.2783283 309.846151,83.7924313 308.194616,79.7442928 C306.486133,75.6961543 305.688841,71.310671 305.688841,66.5316187 C305.688841,61.7525663 306.486133,57.367083 308.137667,53.3189445 C309.789201,49.2708061 312.067179,45.7849091 314.971601,42.8050294 C317.876023,39.8251497 321.29299,37.5199597 325.222503,35.8332354 C329.152015,34.146511 333.366274,33.359373 337.92223,33.359373 C342.762934,33.359373 347.091092,34.2027351 350.906705,35.9456836 C354.722319,37.632408 357.968438,39.937598 360.531163,42.7488052 C363.150838,45.5600125 365.087119,48.9334612 366.453906,52.7567031 C367.820693,56.579945 368.504086,60.6280834 368.504086,64.9573426 L368.504086,69.0054811 L315.256349,69.0054811 L315.256349,69.0617052 Z M358.70878,61.7525663 C358.70878,55.7365828 356.886398,50.8450821 353.241633,47.1342886 C349.596868,43.423495 344.471417,41.511874 337.92223,41.511874 C335.017808,41.511874 332.170336,42.0741155 329.436762,43.1985984 C326.703188,44.3230813 324.311311,45.8411332 322.261131,47.69653 C320.210951,49.6081509 318.559417,51.7446685 317.363478,54.1623067 C316.11059,56.579945 315.541096,59.1100315 315.541096,61.6963422 L358.70878,61.6963422 L358.70878,61.7525663 Z" id="Shape"></path>
                <polygon id="Path" points="487.984037 98.1858125 478.131781 98.1858125 478.131781 14.805405 460.762198 29.9297001 454.611658 22.6205612 479.213821 2.66098964 487.984037 2.66098964"></polygon>
                <path d="M579.843503,57.1984106 L579.558755,56.9172898 C578.02112,57.9855486 575.91399,58.8289108 573.351265,59.3349281 C570.78854,59.8409454 568.339713,60.1220661 566.175634,60.1220661 C561.961375,60.1220661 558.088812,59.3911522 554.500996,57.8731003 C550.913181,56.4112725 547.780961,54.3309791 545.161286,51.7446685 C542.541612,49.1583578 540.434482,46.0098056 538.953796,42.4114603 C537.47311,38.8131151 536.675818,34.8774249 536.675818,30.5481657 C536.675818,26.1626824 537.47311,22.1145439 539.010746,18.5161986 C540.548381,14.9178533 542.769409,11.8255253 545.559933,9.1829905 C548.407405,6.59667981 551.710473,4.57261058 555.526087,3.11078281 C559.3417,1.70517917 563.555959,0.974265286 568.111916,0.974265286 C572.667872,0.974265286 576.882131,1.70517917 580.697744,3.11078281 C584.513358,4.57261058 587.873375,6.59667981 590.663899,9.1829905 C593.511371,11.7693012 595.67545,14.9178533 597.213085,18.5161986 C598.750721,22.1145439 599.548013,26.1064582 599.548013,30.5481657 C599.548013,35.8332354 598.750721,40.4998394 597.156136,44.4355296 C595.561551,48.3712197 593.568321,52.3069099 591.233393,56.1863759 L565.150544,98.1295883 L553.532856,98.1295883 L579.843503,57.1984106 Z M589.695758,30.6043898 C589.695758,27.568286 589.183213,24.7570787 588.101173,22.2269922 C587.019134,19.6969057 585.595397,17.5603881 583.659116,15.7612155 C581.722835,13.9620428 579.444856,12.5564392 576.825182,11.4881805 C574.205507,10.4761458 571.244135,9.91390438 568.054966,9.91390438 C564.865797,9.91390438 561.961375,10.4199217 559.28475,11.4881805 C556.608126,12.5564392 554.387098,13.9620428 552.450816,15.7612155 C550.514535,17.5603881 549.033849,19.6969057 548.008759,22.2269922 C546.983669,24.7570787 546.414174,27.5120619 546.414174,30.6043898 C546.414174,33.6404937 546.926719,36.451701 548.008759,38.9817875 C549.033849,41.511874 550.514535,43.7046157 552.450816,45.5037883 C554.387098,47.302961 556.665076,48.7647888 559.28475,49.7768234 C561.904425,50.788858 564.865797,51.2386512 568.054966,51.2386512 C571.244135,51.2386512 574.148557,50.7326338 576.825182,49.7768234 C579.444856,48.7647888 581.722835,47.3591851 583.659116,45.5037883 C585.595397,43.6483915 587.076083,41.4556499 588.101173,38.9817875 C589.126263,36.451701 589.695758,33.6404937 589.695758,30.6043898 Z" id="Shape"></path>
                <path d="M683.320657,11.6006287 L643.797737,11.6006287 L643.114344,40.331167 C645.221474,39.5440289 647.328603,38.9255633 649.549632,38.5882185 C651.713711,38.2508736 653.93474,38.025977 656.098819,38.025977 C660.654775,38.025977 664.812085,38.8131151 668.513799,40.331167 C672.272463,41.8492189 675.461633,43.9857364 678.138257,46.7407195 C680.814881,49.4957027 682.922011,52.7004789 684.402697,56.4674967 C685.883382,60.1782903 686.680675,64.2826529 686.680675,68.6681362 C686.680675,73.2785161 685.883382,77.4391029 684.231848,81.2623447 C682.580314,85.0855866 680.302336,88.346587 677.397914,91.1015702 C674.493492,93.8565533 671.019575,95.9930708 667.090063,97.5111227 C663.103601,99.0291746 658.832393,99.8163127 654.162538,99.8163127 C648.068946,99.8163127 642.544849,98.3544849 637.647196,95.4870535 C632.749544,92.6196221 628.93393,88.4028112 626.314255,82.7803967 L636.166511,78.6198099 C637.988893,82.3868276 640.551618,85.4229315 643.797737,87.6156731 C647.043856,89.8084148 650.859469,90.9328977 655.130678,90.9328977 C658.205949,90.9328977 661.053421,90.3706563 663.730045,89.2461734 C666.34972,88.1216905 668.684648,86.6036385 670.620929,84.7482417 C672.557211,82.8928449 674.094846,80.587655 675.233835,78.0013443 C676.372824,75.4150336 676.942318,72.6038264 676.942318,69.6239467 C676.942318,66.3067221 676.372824,63.2143941 675.176885,60.459411 C673.980947,57.7044279 672.329413,55.2867896 670.279232,53.2627204 C668.172103,51.2386512 665.666327,49.6643751 662.761905,48.5961163 C659.857483,47.5278576 656.668313,46.9656161 653.194397,46.9656161 C649.72048,46.9656161 646.303513,47.4154093 642.886546,48.3712197 C639.469579,49.3270302 636.22346,50.6201856 633.09124,52.1944616 L634.059381,2.66098964 L683.377606,2.66098964 L683.377606,11.6006287 L683.320657,11.6006287 Z" id="Path"></path>
                <path d="M747.38879,1.03048943 C754.336624,1.03048943 759.91767,2.6047655 764.188879,5.75331763 C768.460088,8.90186977 771.820105,12.8937841 774.155033,17.7852847 C776.54691,22.6205612 778.141495,27.961855 778.938787,33.752942 C779.736079,39.5440289 780.191675,45.1102193 780.191675,50.395289 C780.191675,55.6803586 779.793029,61.246549 778.938787,67.037636 C778.141495,72.8287229 776.54691,78.1700167 774.155033,83.0052932 C771.763156,87.8405697 768.460088,91.8887082 764.188879,95.0372603 C759.91767,98.1858125 754.279674,99.7600885 747.38879,99.7600885 C740.497907,99.7600885 734.859911,98.1858125 730.588702,95.0372603 C726.317493,91.8887082 722.957476,87.8967939 720.622548,83.0052932 C718.230671,78.1700167 716.636086,72.8287229 715.838794,67.037636 C715.041502,61.246549 714.585906,55.6803586 714.585906,50.395289 C714.585906,45.1102193 714.984552,39.5440289 715.838794,33.752942 C716.636086,27.961855 718.230671,22.6205612 720.622548,17.7852847 C723.014425,12.9500082 726.317493,8.90186977 730.588702,5.75331763 C734.859911,2.6047655 740.497907,1.03048943 747.38879,1.03048943 Z M747.38879,9.97012853 C742.092491,9.97012853 737.935181,11.3757322 734.859911,14.1307153 C731.784641,16.9419225 729.506663,20.3715954 727.969027,24.5321822 C726.431392,28.6927689 725.463251,33.0782522 725.007656,37.7448563 C724.55206,42.4114603 724.381212,46.6282712 724.381212,50.4515131 C724.381212,54.274755 724.60901,58.4353418 725.007656,63.15817 C725.406302,67.824774 726.374443,72.2664815 727.969027,76.3708441 C729.506663,80.5314308 731.84159,83.9611037 734.859911,86.772311 C737.878232,89.5835182 742.092491,90.9328977 747.38879,90.9328977 C752.68509,90.9328977 756.8424,89.5272941 759.91767,86.772311 C762.99294,84.0173278 765.270918,80.5314308 766.808554,76.3708441 C768.346189,72.2102573 769.314329,67.824774 769.769925,63.15817 C770.168571,58.4915659 770.396369,54.274755 770.396369,50.4515131 C770.396369,46.6282712 770.168571,42.4676845 769.769925,37.7448563 C769.371279,33.0782522 768.403138,28.6365448 766.808554,24.5321822 C765.270918,20.3715954 762.935991,16.9419225 759.91767,14.1307153 C756.8424,11.3757322 752.68509,9.97012853 747.38879,9.97012853 Z" id="Shape"></path>
            </g>
        </g>
    </g>
</svg>